<?xml version="1.0" standalone="no"?>
<!DOCTYPE svg PUBLIC "-//W3C//DTD SVG 20010904//EN"
 "http://www.w3.org/TR/2001/REC-SVG-20010904/DTD/svg10.dtd">
<svg version="1.0" xmlns="http://www.w3.org/2000/svg"
 width="402.000000pt" height="402.000000pt" viewBox="0 0 402.000000 402.000000"
 preserveAspectRatio="xMidYMid meet">
<metadata>
Created by potrace 1.14, written by Peter Selinger 2001-2017
</metadata>
<g transform="translate(0.000000,402.000000) scale(0.100000,-0.100000)"
fill="#000000" stroke="none">
<path d="M1320 3873 c0 -6 -39 -33 -87 -60 -47 -26 -98 -55 -112 -63 -14 -8
-89 -51 -166 -95 -77 -44 -149 -85 -160 -92 -11 -6 -35 -19 -52 -28 l-33 -17
0 -357 1 -356 42 -26 c23 -14 57 -32 75 -39 17 -8 32 -18 32 -22 0 -5 4 -8 10
-8 5 0 33 -14 62 -31 55 -33 94 -56 163 -94 22 -13 81 -47 130 -75 50 -29 95
-53 101 -53 6 0 121 62 255 139 134 76 251 142 259 147 8 4 35 20 60 35 l45
28 3 351 c2 273 -1 353 -10 361 -14 10 -313 183 -408 235 -30 16 -59 33 -65
37 -5 4 -37 22 -70 40 -33 18 -63 38 -67 44 -6 8 -8 8 -8 -1z"/>
<path d="M2699 3872 c-2 -5 -53 -38 -114 -72 -60 -34 -125 -71 -142 -81 -18
-11 -49 -28 -69 -39 -19 -11 -68 -39 -107 -62 -40 -22 -97 -55 -127 -72 l-55
-32 0 -353 0 -354 37 -23 c21 -13 39 -24 41 -24 2 0 81 -44 174 -98 94 -55
177 -102 184 -106 8 -3 30 -16 49 -27 19 -12 58 -34 85 -49 l51 -29 93 54 c51
30 95 55 96 55 2 0 49 27 104 60 56 33 104 60 106 60 3 0 24 12 48 27 23 14
67 40 97 56 30 16 59 34 64 38 6 5 10 155 10 360 l1 351 -90 53 c-50 29 -108
63 -130 75 -22 12 -56 30 -75 42 -240 138 -316 183 -321 191 -4 5 -8 5 -10 -1z"/>
<path d="M585 2681 c-27 -15 -95 -54 -150 -86 -55 -32 -125 -71 -155 -88 -30
-17 -66 -38 -80 -47 -14 -9 -60 -36 -103 -60 l-78 -44 0 -125 c0 -70 0 -133 0
-141 -1 -8 0 -62 1 -120 1 -58 1 -109 0 -115 -1 -5 -2 -53 -1 -106 l1 -96 51
-32 c28 -17 52 -31 53 -31 2 0 65 -36 141 -80 76 -44 139 -80 140 -80 2 0 48
-27 103 -59 126 -74 132 -76 174 -53 18 11 78 45 133 77 55 31 120 69 145 83
25 13 56 33 70 42 14 10 30 19 35 20 6 1 52 27 103 57 l92 54 0 354 0 353
-113 65 c-62 36 -129 74 -149 85 -19 11 -102 58 -184 105 -82 47 -156 88 -164
91 -8 3 -37 -7 -65 -23z"/>
<path d="M1922 2659 c-89 -52 -114 -67 -304 -173 -144 -81 -199 -115 -213
-131 -11 -14 -12 -685 -1 -703 6 -10 129 -83 281 -167 22 -12 104 -59 182
-104 77 -44 145 -81 149 -81 6 0 163 87 229 127 11 7 27 16 35 20 20 9 309
175 335 192 20 13 21 22 20 366 l0 353 -60 35 c-33 19 -76 44 -95 55 -19 11
-67 38 -107 61 -39 22 -89 50 -110 62 -21 12 -83 48 -139 80 -55 33 -105 59
-110 58 -5 0 -46 -23 -92 -50z"/>
<path d="M3320 2673 c-36 -21 -66 -41 -68 -45 -2 -4 -8 -8 -13 -8 -7 0 -59
-29 -309 -173 -19 -11 -62 -35 -96 -53 l-60 -34 0 -355 1 -356 140 -81 c77
-45 165 -95 195 -111 30 -17 71 -40 90 -52 19 -12 70 -41 114 -65 87 -47 78
-47 171 8 17 9 140 80 275 157 135 76 247 140 249 142 9 6 4 704 -5 712 -9 9
-463 271 -469 271 -2 0 -33 18 -69 40 -36 22 -69 40 -73 40 -5 -1 -37 -17 -73
-37z"/>
<path d="M1298 1543 c-10 -2 -18 -9 -18 -14 0 -5 -4 -9 -9 -9 -4 0 -86 -45
-181 -100 -95 -55 -177 -100 -181 -100 -5 0 -9 -4 -9 -10 0 -5 -5 -10 -10 -10
-6 0 -48 -21 -95 -47 l-85 -48 0 -355 0 -356 88 -51 c48 -28 105 -61 127 -73
123 -69 324 -185 346 -201 14 -10 29 -16 32 -12 4 3 9 -2 13 -11 6 -14 8 -14
33 2 14 11 89 54 166 98 77 43 143 83 147 89 4 5 8 6 8 2 0 -5 12 0 28 11 15
10 59 36 97 57 39 22 72 41 75 44 3 3 22 15 43 25 l37 19 0 352 0 353 -24 16
c-23 15 -42 26 -141 81 -22 13 -80 46 -128 74 -49 28 -90 51 -92 51 -2 0 -34
19 -71 41 -94 58 -155 89 -168 88 -6 -1 -19 -3 -28 -6z"/>
<path d="M2385 1375 l-300 -173 0 -352 0 -352 53 -34 c29 -19 54 -34 56 -34 2
0 44 -24 93 -52 48 -29 90 -53 93 -53 5 -1 148 -84 253 -146 26 -16 52 -29 57
-29 6 0 10 -6 10 -12 0 -9 3 -9 8 -3 4 6 140 87 302 179 162 92 299 172 304
177 10 9 15 694 6 708 -4 7 -132 82 -255 151 -94 52 -130 75 -133 82 -2 4 -11
8 -20 8 -8 0 -23 6 -31 14 -9 7 -43 28 -76 45 -33 18 -64 36 -69 42 -6 5 -19
9 -30 8 -12 0 -156 -79 -321 -174z"/>
</g>
</svg>
